/vscmnt/brussel_pixiu_data/_data_brussel/112/vsc11236/PredSimResults/SUBJ10mtu3D/worker7.mot
version=1
nRows=11
nColumns=50
inDegrees=yes
endheader
                time	         pelvis_tilt	         pelvis_list	     pelvis_rotation	           pelvis_tx	           pelvis_ty	           pelvis_tz	       hip_flexion_r	     hip_adduction_r	      hip_rotation_r	        knee_angle_r	       ankle_angle_r	         mtp_angle_r	       hip_flexion_l	     hip_adduction_l	      hip_rotation_l	        knee_angle_l	       ankle_angle_l	         mtp_angle_l	    lumbar_extension	      lumbar_bending	     lumbar_rotation	 ercspn_r/activation	 intobl_r/activation	 extobl_r/activation	    abd_r/activation	    add_r/activation	hamstrings_r/activation	bifemsh_r/activation	glut_max_r/activation	iliopsoas_r/activation	rect_fem_r/activation	  vasti_r/activation	gastroc_r/activation	 soleus_r/activation	tib_ant_r/activation	 ercspn_l/activation	 intobl_l/activation	 extobl_l/activation	    abd_l/activation	    add_l/activation	hamstrings_l/activation	bifemsh_l/activation	glut_max_l/activation	iliopsoas_l/activation	rect_fem_l/activation	  vasti_l/activation	gastroc_l/activation	 soleus_l/activation	tib_ant_l/activation	
          0.00000000	         -4.68269886	         -0.31884897	          6.79125195	          0.00000000	          0.82335513	         -0.01308582	         32.17125056	         -1.79496694	         -5.30799512	         -8.35194146	          4.70784560	          0.26358138	        -15.92653320	          0.67468746	          3.49108979	         -4.09437380	          8.51317020	         24.48809433	         -6.98122993	         -0.99365808	         -4.46870737	          0.12520309	          0.16641668	          0.01000011	          0.01180331	          0.08196491	          0.13280736	          0.26473972	          0.01967126	          0.06194889	          0.01000022	          0.01000006	          0.01000024	          0.01000002	          0.28812858	          0.08499548	          0.01000001	          0.01000005	          0.07437307	          0.01000015	          0.01536828	          0.23581280	          0.02290952	          0.40754169	          0.01000017	          0.01000002	          0.32360826	          0.21644202	          0.02363732	
          0.01081979	         -4.68134530	         -0.29884317	          6.87687088	          0.01528528	          0.82208914	         -0.01300670	         31.92149915	         -1.59155809	         -4.72451256	         -9.65476808	          4.41887961	          0.26048285	        -16.07183709	          0.63293980	          3.14222279	         -5.75836252	          7.96998341	         26.16608685	         -6.79213339	         -0.59676981	         -4.78367435	          0.10607504	          0.14099195	          0.01000014	          0.01000002	          0.12177346	          0.11251719	          0.23317094	          0.06724043	          0.05248440	          0.01000015	          0.01000001	          0.01664319	          0.01201790	          0.30455513	          0.12401992	          0.01000003	          0.01000007	          0.06301042	          0.01180463	          0.01567944	          0.19978556	          0.01940947	          0.35662357	          0.01000027	          0.01000006	          0.29579014	          0.20944399	          0.02002603	
          0.02163957	         -4.67430528	         -0.29413331	          6.92291204	          0.03084787	          0.82100980	         -0.01284898	         31.52445016	         -1.39147305	         -4.08389956	        -10.86411090	          4.02617289	          0.25226583	        -16.10801425	          0.57513034	          2.75962774	         -7.64068944	          7.29818425	         27.80956092	         -6.57947496	         -0.17647074	         -5.08253572	          0.10464287	          0.11945159	          0.01000006	          0.03851786	          0.10316917	          0.09532694	          0.19754740	          0.10880875	          0.04446588	          0.01000004	          0.01000000	          0.01410047	          0.01018183	          0.38675294	          0.13470322	          0.01000001	          0.01000005	          0.05338375	          0.01000125	          0.01328588	          0.16926253	          0.01644413	          0.30213912	          0.01000019	          0.01000002	          0.25065594	          0.19753037	          0.01696647	
          0.03245936	         -4.66331041	         -0.28852488	          6.92289902	          0.04650835	          0.82023203	         -0.01258022	         31.06070794	         -1.18777829	         -3.52662350	        -11.92843280	          3.50538200	          0.24136644	        -15.97930141	          0.52023412	          2.33742808	         -9.81036105	          6.48733244	         29.34478337	         -6.36413334	          0.24200124	         -5.35670299	          0.11982809	          0.10120189	          0.01000006	          0.08845067	          0.13037290	          0.08076299	          0.16736633	          0.13285932	          0.03767243	          0.01000008	          0.01000004	          0.01194622	          0.01000002	          0.43267407	          0.16111635	          0.01000000	          0.01000005	          0.04522783	          0.01000007	          0.01125857	          0.14340279	          0.01393183	          0.25597909	          0.01000030	          0.01000002	          0.21236095	          0.18232514	          0.01437435	
          0.04327914	         -4.64777833	         -0.28049355	          6.87939015	          0.06213202	          0.81984522	         -0.01220987	         30.61439054	         -0.98095356	         -3.06774263	        -13.02765039	          3.02971997	          0.22802831	        -15.64627855	          0.46896262	          1.87046093	        -12.31234028	          5.54500278	         30.64754063	         -6.15780282	          0.65578795	         -5.60244488	          0.12114145	          0.08574036	          0.01000006	          0.12459358	          0.16990410	          0.06842420	          0.14179629	          0.14095141	          0.03191687	          0.01000009	          0.01373747	          0.01012112	          0.01000007	          0.45820293	          0.18839630	          0.01000001	          0.01000004	          0.03831796	          0.01703151	          0.01767829	          0.12149387	          0.01180339	          0.21687087	          0.01000017	          0.01000003	          0.17991663	          0.16206417	          0.01217826	
          0.05409893	         -4.62835951	         -0.27306430	          6.79840543	          0.07763794	          0.81989971	         -0.01174707	         30.21057934	         -0.77106087	         -2.69330679	        -14.21432830	          2.70029827	          0.21441938	        -15.07953274	          0.41366945	          1.35515277	        -15.17898925	          4.50921595	         31.52887133	         -5.96354626	          1.06493604	         -5.82216650	          0.12003979	          0.07264102	          0.01000006	          0.15166134	          0.19565972	          0.06149380	          0.12013282	          0.13891102	          0.02704064	          0.01000007	          0.04102698	          0.01000006	          0.01000004	          0.46865153	          0.20443624	          0.01000001	          0.01000004	          0.03246378	          0.07468199	          0.02229076	          0.10293219	          0.01000017	          0.18373756	          0.01000011	          0.01000001	          0.15242912	          0.13730416	          0.01031768	
          0.06491872	         -4.60709685	         -0.26268998	          6.68095815	          0.09296452	          0.82045837	         -0.01121344	         29.79623785	         -0.56272073	         -2.39152071	        -15.38662126	          2.54889714	          0.20014681	        -14.25044818	          0.35448746	          0.77489772	        -18.43693563	          3.39318640	         31.81029732	         -5.78374140	          1.46478475	         -6.01431423	          0.11289960	          0.06154299	          0.01000006	          0.16870588	          0.20987431	          0.05899514	          0.10177909	          0.12832541	          0.02290940	          0.01000007	          0.06883192	          0.01000010	          0.01000005	          0.45685766	          0.21360104	          0.01000001	          0.01000005	          0.02750399	          0.12447604	          0.02606170	          0.08720638	          0.01000007	          0.15566632	          0.01000009	          0.01000001	          0.12914113	          0.11632696	          0.01000001	
          0.07573850	         -4.58638633	         -0.24587859	          6.52759660	          0.10806643	          0.82155391	         -0.01063035	         29.30947168	         -0.35690034	         -2.13890671	        -16.43137619	          2.60417330	          0.18830760	        -13.14479155	          0.28637466	          0.12499692	        -22.06856136	          2.11471967	         31.46546118	         -5.62043164	          1.85146914	         -6.17741833	          0.10513160	          0.05214051	          0.01000006	          0.17678233	          0.21416547	          0.05963675	          0.08622942	          0.11601408	          0.01940933	          0.01000006	          0.08851854	          0.01000007	          0.01000004	          0.43261345	          0.21351457	          0.01000002	          0.01000006	          0.02330196	          0.16985212	          0.03382126	          0.07388327	          0.01000005	          0.13188378	          0.01000007	          0.01000000	          0.10941106	          0.09855463	          0.01000001	
          0.08655829	         -4.56828008	         -0.21881957	          6.33907306	          0.12291462	          0.82316029	         -0.01001492	         28.71073159	         -0.15537939	         -1.90751670	        -17.26990833	          2.85409550	          0.18562793	        -11.77411218	          0.20248442	         -0.58548278	        -25.99243483	          0.54574673	         30.55685289	         -5.47549292	          2.22095986	         -6.31047273	          0.09103615	          0.04417453	          0.01000006	          0.18044148	          0.21357578	          0.06518331	          0.07305542	          0.09828986	          0.01644399	          0.01000005	          0.10805533	          0.01000006	          0.01000003	          0.39278227	          0.21387889	          0.01000002	          0.01000005	          0.01974191	          0.21314888	          0.03440721	          0.06860249	          0.01000003	          0.11173471	          0.01000005	          0.01000000	          0.09269534	          0.08349754	          0.01000002	
          0.09737807	         -4.55454349	         -0.17518141	          6.11509230	          0.13747911	          0.82521940	         -0.00937803	         27.97608547	          0.03682879	         -1.66962096	        -17.84897361	          3.27622673	          0.20777564	        -10.16764000	          0.10201737	         -1.33358686	        -30.11285371	         -1.29139578	         28.97043811	         -5.35278246	          2.56560637	         -6.41331418	          0.07712776	          0.03742559	          0.01000008	          0.18292739	          0.19614975	          0.06968591	          0.06189414	          0.08327330	          0.01393170	          0.01000004	          0.12169475	          0.01000008	          0.01000004	          0.34481673	          0.20614875	          0.01000005	          0.01000006	          0.01672576	          0.27479541	          0.06559771	          0.06101547	          0.01000029	          0.09466400	          0.01000005	          0.01000000	          0.07853343	          0.07074086	          0.06091870	
          0.10819786	         -4.54652936	         -0.11062862	          5.85675600	          0.15170524	          0.82762367	         -0.00873878	         27.10975491	          0.21216748	         -1.40983166	        -18.15630060	          3.80450998	          0.26956360	         -8.37432234	         -0.00514445	         -2.07706763	        -34.34991284	         -3.07468353	         26.39997614	         -5.25996391	          2.88044686	         -6.48511075	          0.06534427	          0.03170774	          0.01000007	          0.18972854	          0.16618230	          0.07333880	          0.05243805	          0.07146899	          0.01180324	          0.01000004	          0.12805413	          0.01000006	          0.01000003	          0.30292675	          0.21980166	          0.03365939	          0.01000015	          0.01417042	          0.23281327	          0.09745135	          0.09350144	          0.01781603	          0.08020135	          0.01000004	          0.01000000	          0.06653517	          0.05993313	          0.19902658	
